# xmcd
#
# Track frame offsets:
# 150
# 21295
# 46236
# 68959
# 90091
# 118412
# 134718
# 154528
# 186958
# 204335
# 242903
# 269948
# 306399
#
# Disc length: 4377 seconds
#
#
# Revision: 0
# Processed by: cddbd v1.5.2PL0 Copyright (c) Steve Scherf et al.
# Submitted via: Nero 7, 11, 10, 0 
#
DISCID=c211170d
DTITLE=Root Doctor - The Doctor Is In
DYEAR=1996
DGENRE=Blues
TTITLE0=Let The Good Times Roll
TTITLE1=For The Love Of A Woman
TTITLE2=Rainy Night In Georgia
TTITLE3=Honey Hush
TTITLE4=Down Home Blues
TTITLE5=Don't Fight It
TTITLE6=The Way You Do The Things You Do
TTITLE7=Let's Straighten It Out
TTITLE8=Cheatin' On You
TTITLE9=Five Long Years
TTITLE10=I Can't Get Next To You
TTITLE11=God Bless The Child
TTITLE12=The Letter
EXTD=
EXTT0=Let The Good Times Roll
EXTT1=For The Love Of A Woman
EXTT2=Rainy Night In Georgia
EXTT3=Honey Hush
EXTT4=Down Home Blues
EXTT5=Don't Fight It
EXTT6=The Way You Do The Things You Do
EXTT7=Let's Straighten It Out
EXTT8=Cheatin' On You
EXTT9=Five Long Years
EXTT10=I Can't Get Next To You
EXTT11=God Bless The Child
EXTT12=The Letter
PLAYORDER=
